<svg xmlns="http://www.w3.org/2000/svg" viewBox="0 0 32 32">
  <rect width="32" height="32" rx="8" fill="#0e140f"/>
  <path d="M8 30V13a8 8 0 0 1 16 0v17" stroke="rgba(166,195,165,.55)" stroke-width="1" fill="none"/>
  <g transform="translate(16 0)">
    <path d="M0 27V11" stroke="#b27a52" stroke-width="1.1" stroke-linecap="round"/>
    <g fill="#b27a52">
      <path d="M0 0C-2.8-2.4-2.8-7.2 0-9.8 2.8-7.2 2.8-2.4 0 0Z" transform="translate(0 11)"/>
      <path d="M0 0C-2.5-2-2.5-6.4 0-8.8 2.5-6.4 2.5-2 0 0Z" transform="translate(0 15.5) rotate(38)"/>
      <path d="M0 0C-2.5-2-2.5-6.4 0-8.8 2.5-6.4 2.5-2 0 0Z" transform="translate(0 15.5) rotate(-38)"/>
      <path d="M0 0C-2.2-1.8-2.2-5.8 0-8 2.2-5.8 2.2-1.8 0 0Z" transform="translate(0 20) rotate(64)"/>
      <path d="M0 0C-2.2-1.8-2.2-5.8 0-8 2.2-5.8 2.2-1.8 0 0Z" transform="translate(0 20) rotate(-64)"/>
    </g>
  </g>
</svg>
