<svg xmlns="http://www.w3.org/2000/svg" viewBox="0 0 1280 720">
  <rect width="1280" height="720" fill="#14201a"/>
  <radialGradient id="g1" cx="0.8" cy="0.15" r="0.9"><stop offset="0" stop-color="rgba(200,164,93,.30)"/><stop offset="0.65" stop-color="rgba(0,0,0,0)"/></radialGradient>
  <rect width="1280" height="720" fill="url(#g1)"/>
  <radialGradient id="g2" cx="0.12" cy="0.95" r="0.8"><stop offset="0" stop-color="rgba(90,111,80,.35)"/><stop offset="0.6" stop-color="rgba(0,0,0,0)"/></radialGradient>
  <rect width="1280" height="720" fill="url(#g2)"/>
  <!-- a human hand-line meeting an AI spark: leaf arc + circuit spark -->
  <path d="M 340 470 Q 520 260 760 330" fill="none" stroke="#a6c3a5" stroke-width="16" stroke-linecap="round" opacity="0.9"/>
  <g stroke="#c8a45d" stroke-width="14" stroke-linecap="round">
    <line x1="880" y1="330" x2="880" y2="230"/><line x1="880" y1="330" x2="965" y2="380"/>
    <line x1="880" y1="330" x2="795" y2="380"/><line x1="880" y1="330" x2="880" y2="435"/>
  </g>
  <circle cx="880" cy="330" r="34" fill="none" stroke="#c8a45d" stroke-width="14"/>
  <circle cx="880" cy="230" r="12" fill="#c8a45d"/><circle cx="965" cy="380" r="12" fill="#c8a45d"/>
  <circle cx="795" cy="380" r="12" fill="#c8a45d"/><circle cx="880" cy="447" r="12" fill="#c8a45d"/>
  <circle cx="880" cy="330" r="120" fill="none" stroke="rgba(200,164,93,.30)" stroke-width="2"/>
  <text x="84" y="104" font-family="Helvetica,Arial,sans-serif" font-size="20" letter-spacing="9" font-weight="bold" fill="#f7f6f1" opacity="0.92">EDENRISE</text>
  <text x="85" y="128" font-family="Helvetica,Arial,sans-serif" font-size="11" letter-spacing="6.5" fill="#c8a45d" opacity="0.75">ACADEMY</text>
  <text x="96" y="580" font-family="Georgia,serif" font-size="56" font-weight="600" fill="#f7f6f1">Working Well with AI</text>
  <text x="98" y="622" font-family="Helvetica,Arial,sans-serif" font-size="19" letter-spacing="4" fill="#a6c3a5" opacity="0.85">EU AI ACT · ARTICLE 4 · AI LITERACY</text>
</svg>
